<?xml version="1.0" standalone="no"?>
<!DOCTYPE svg PUBLIC "-//W3C//DTD SVG 20010904//EN"
 "http://www.w3.org/TR/2001/REC-SVG-20010904/DTD/svg10.dtd">
<svg version="1.0" xmlns="http://www.w3.org/2000/svg"
 width="626.000000pt" height="626.000000pt" viewBox="0 0 626.000000 626.000000"
 preserveAspectRatio="xMidYMid meet">
<metadata>
Created by potrace 1.11, written by Peter Selinger 2001-2013
</metadata>
<g transform="translate(0.000000,626.000000) scale(0.100000,-0.100000)"
fill="#000000" stroke="none">
<path d="M3124 6100 c-443 -37 -927 -205 -1301 -452 -639 -421 -1074 -1042
-1241 -1773 -51 -221 -66 -364 -67 -615 0 -207 19 -470 34 -470 3 0 42 12 86
26 45 14 118 27 168 31 53 4 87 10 87 17 0 6 -5 54 -11 106 -13 121 -13 405 0
537 26 255 98 513 218 781 51 112 63 116 63 21 1 -243 171 -661 341 -837 135
-139 268 -207 618 -317 280 -88 347 -141 366 -290 13 -98 -36 -176 -166 -270
-43 -31 -79 -60 -79 -63 0 -8 184 -59 240 -68 27 -4 67 7 165 44 181 68 513
170 610 186 22 4 47 11 55 16 15 9 -1 17 -245 121 -188 79 -250 131 -307 253
-29 62 -56 182 -67 301 -17 169 -38 236 -87 274 -35 28 -81 27 -178 -4 -161
-49 -235 -46 -295 14 -121 121 -111 287 28 429 53 54 80 74 136 96 61 25 77
27 135 21 171 -18 308 -94 480 -267 122 -122 171 -158 214 -158 111 1 239 150
288 333 20 80 23 139 7 169 -6 11 -34 30 -63 43 -74 33 -106 73 -106 135 0 83
68 153 302 312 141 97 183 133 202 172 27 58 21 88 -29 144 -39 44 -75 65
-289 172 -309 154 -366 202 -366 309 0 46 22 71 92 104 183 88 526 81 883 -19
249 -69 308 -99 406 -201 56 -59 130 -165 171 -247 90 -179 138 -433 105 -557
-51 -194 -266 -391 -530 -486 -169 -60 -256 -132 -322 -265 -33 -69 -38 -88
-43 -170 -9 -179 26 -230 203 -302 270 -110 335 -177 335 -344 0 -46 5 -103
11 -128 16 -64 85 -136 166 -175 90 -43 112 -48 241 -59 68 -6 125 -16 145
-26 104 -54 189 -178 172 -253 -7 -35 -52 -77 -131 -124 -87 -52 -139 -112
-153 -176 -24 -110 -10 -151 58 -177 71 -26 144 -65 158 -83 20 -26 15 -102
-13 -182 -45 -131 -35 -212 36 -292 l29 -33 -27 -25 c-119 -112 -357 -276
-517 -357 -231 -117 -400 -178 -630 -226 l-100 -21 2 -40 c1 -22 5 -103 7
-180 3 -77 9 -139 13 -138 363 71 591 146 843 275 763 392 1298 1069 1498
1898 58 236 76 398 77 660 0 348 -35 576 -140 900 -52 162 -98 270 -179 425
-141 272 -304 493 -521 710 -456 457 -1027 738 -1675 825 -104 14 -494 20
-616 10z"/>
<path d="M787 2529 c-67 -10 -125 -34 -219 -90 -52 -32 -70 -49 -82 -79 -19
-48 -12 -91 20 -123 13 -14 138 -98 276 -188 139 -90 316 -204 393 -254 77
-50 164 -106 193 -125 28 -18 52 -37 52 -41 0 -4 -64 -41 -142 -82 -79 -40
-212 -113 -296 -161 l-152 -87 -93 47 c-50 26 -130 68 -177 94 -188 104 -260
134 -325 134 -85 -1 -163 -28 -202 -71 -55 -60 -49 -79 92 -323 39 -69 88
-155 109 -192 l37 -67 -59 -60 c-104 -106 -116 -170 -43 -242 51 -52 126 -72
261 -72 111 0 137 4 480 78 266 57 812 193 1045 260 50 15 115 33 145 41 226
62 917 294 1100 369 431 176 727 327 907 462 92 69 204 189 234 250 34 72 37
174 7 233 -29 57 -100 110 -181 136 l-63 21 -348 -160 c-191 -87 -349 -157
-352 -154 -2 2 -1 36 2 74 l7 71 218 98 219 99 -85 9 c-211 21 -605 -67 -1045
-234 -200 -76 -192 -74 -262 -58 -35 9 -227 59 -428 112 -201 54 -405 108
-455 121 -150 39 -314 82 -420 111 -192 52 -256 59 -368 43z"/>
<path d="M3360 1200 c-171 -55 -798 -284 -812 -296 -35 -32 -22 -64 64 -159
44 -49 122 -137 171 -195 50 -58 96 -109 102 -115 6 -5 40 -44 75 -85 36 -41
90 -102 122 -135 54 -57 60 -60 105 -60 96 0 238 97 289 198 36 69 46 140 35
233 -5 43 -19 160 -30 259 -38 331 -38 328 -61 347 -24 20 -24 20 -60 8z"/>
</g>
</svg>
